<svg xmlns="http://www.w3.org/2000/svg" xmlns:xlink="http://www.w3.org/1999/xlink" width="500" zoomAndPan="magnify" viewBox="0 180 375 60" height="100" preserveAspectRatio="xMidYMid meet" version="1.2"><defs/><g id="45b4021f2f"><g style="fill:#000000;fill-opacity:1;"><g transform="translate(83.77451, 214.262683)"><path style="stroke:none" d="M 2.453125 -25.40625 C 3.109375 -26.0625 3.890625 -26.390625 4.796875 -26.390625 C 5.710938 -26.390625 6.5 -26.0625 7.15625 -25.40625 C 7.8125 -24.75 8.140625 -23.960938 8.140625 -23.046875 C 8.140625 -22.140625 7.8125 -21.359375 7.15625 -20.703125 C 6.5 -20.046875 5.710938 -19.71875 4.796875 -19.71875 C 3.890625 -19.71875 3.109375 -20.046875 2.453125 -20.703125 C 1.796875 -21.359375 1.46875 -22.140625 1.46875 -23.046875 C 1.46875 -23.960938 1.796875 -24.75 2.453125 -25.40625 Z M 1.90625 -16.3125 L 1.90625 1.4375 C 1.90625 2.914062 1.382812 3.65625 0.34375 3.65625 C 0.132812 3.65625 -0.0820312 3.617188 -0.3125 3.546875 C -0.550781 3.472656 -0.742188 3.394531 -0.890625 3.3125 L -1.078125 3.1875 L -2.828125 7.734375 C -2.785156 7.753906 -2.644531 7.816406 -2.40625 7.921875 C -2.175781 8.023438 -2.003906 8.101562 -1.890625 8.15625 C -1.773438 8.207031 -1.578125 8.273438 -1.296875 8.359375 C -1.023438 8.441406 -0.757812 8.503906 -0.5 8.546875 C -0.25 8.585938 0.0625 8.628906 0.4375 8.671875 C 0.820312 8.722656 1.226562 8.75 1.65625 8.75 C 2.71875 8.75 3.648438 8.5625 4.453125 8.1875 C 5.253906 7.8125 5.867188 7.3125 6.296875 6.6875 C 6.722656 6.0625 7.035156 5.40625 7.234375 4.71875 C 7.429688 4.03125 7.53125 3.296875 7.53125 2.515625 L 7.53125 -16.3125 Z M 1.90625 -16.3125 "/></g></g><g style="fill:#000000;fill-opacity:1;"><g transform="translate(90.513513, 214.262683)"><path style="stroke:none" d="M 7.21875 -16.3125 L 7.21875 -8.546875 C 7.21875 -6.941406 7.460938 -5.800781 7.953125 -5.125 C 8.441406 -4.445312 9.265625 -4.109375 10.421875 -4.109375 C 11.585938 -4.109375 12.414062 -4.445312 12.90625 -5.125 C 13.394531 -5.800781 13.640625 -6.941406 13.640625 -8.546875 L 13.640625 -16.3125 L 19.265625 -16.3125 L 19.265625 -7.1875 C 19.265625 -4.46875 18.5625 -2.507812 17.15625 -1.3125 C 15.75 -0.113281 13.503906 0.484375 10.421875 0.484375 C 7.347656 0.484375 5.109375 -0.113281 3.703125 -1.3125 C 2.296875 -2.507812 1.59375 -4.46875 1.59375 -7.1875 L 1.59375 -16.3125 Z M 7.21875 -16.3125 "/></g></g><g style="fill:#000000;fill-opacity:1;"><g transform="translate(108.66566, 214.262683)"><path style="stroke:none" d="M 1.90625 0 L 1.90625 -16.3125 L 7.53125 -16.3125 L 7.53125 -14.59375 L 7.59375 -14.59375 C 9.0625 -16.050781 10.625 -16.78125 12.28125 -16.78125 C 13.082031 -16.78125 13.878906 -16.675781 14.671875 -16.46875 C 15.460938 -16.257812 16.222656 -15.929688 16.953125 -15.484375 C 17.691406 -15.035156 18.285156 -14.40625 18.734375 -13.59375 C 19.191406 -12.78125 19.421875 -11.832031 19.421875 -10.75 L 19.421875 0 L 13.796875 0 L 13.796875 -9.21875 C 13.796875 -10.070312 13.523438 -10.816406 12.984375 -11.453125 C 12.441406 -12.085938 11.738281 -12.40625 10.875 -12.40625 C 10.03125 -12.40625 9.257812 -12.070312 8.5625 -11.40625 C 7.875 -10.75 7.53125 -10.019531 7.53125 -9.21875 L 7.53125 0 Z M 1.90625 0 "/></g></g><g style="fill:#000000;fill-opacity:1;"><g transform="translate(126.976761, 214.262683)"><path style="stroke:none" d="M 17.671875 -16.3125 L 9.609375 -4.296875 L 17.046875 -4.296875 L 17.046875 0 L 0.15625 0 L 8.234375 -12.015625 L 1.5 -12.015625 L 1.5 -16.3125 Z M 17.671875 -16.3125 "/></g></g><g style="fill:#000000;fill-opacity:1;"><g transform="translate(142.108715, 214.262683)"><path style="stroke:none" d="M 18.40625 -7.375 L 6.578125 -7.375 C 6.578125 -6.226562 6.945312 -5.378906 7.6875 -4.828125 C 8.4375 -4.273438 9.242188 -4 10.109375 -4 C 11.023438 -4 11.742188 -4.117188 12.265625 -4.359375 C 12.796875 -4.609375 13.40625 -5.09375 14.09375 -5.8125 L 18.15625 -3.78125 C 16.457031 -0.9375 13.640625 0.484375 9.703125 0.484375 C 7.242188 0.484375 5.132812 -0.359375 3.375 -2.046875 C 1.613281 -3.734375 0.734375 -5.765625 0.734375 -8.140625 C 0.734375 -10.515625 1.613281 -12.546875 3.375 -14.234375 C 5.132812 -15.929688 7.242188 -16.78125 9.703125 -16.78125 C 12.285156 -16.78125 14.382812 -16.035156 16 -14.546875 C 17.625 -13.054688 18.4375 -10.921875 18.4375 -8.140625 C 18.4375 -7.753906 18.425781 -7.5 18.40625 -7.375 Z M 6.734375 -10.5 L 12.9375 -10.5 C 12.8125 -11.34375 12.476562 -11.988281 11.9375 -12.4375 C 11.394531 -12.894531 10.703125 -13.125 9.859375 -13.125 C 8.921875 -13.125 8.175781 -12.878906 7.625 -12.390625 C 7.070312 -11.910156 6.773438 -11.28125 6.734375 -10.5 Z M 6.734375 -10.5 "/></g></g><g style="fill:#000000;fill-opacity:1;"><g transform="translate(158.575909, 214.262683)"><path style="stroke:none" d="M 17.671875 -16.3125 L 9.609375 -4.296875 L 17.046875 -4.296875 L 17.046875 0 L 0.15625 0 L 8.234375 -12.015625 L 1.5 -12.015625 L 1.5 -16.3125 Z M 17.671875 -16.3125 "/></g></g><g style="fill:#000000;fill-opacity:1;"><g transform="translate(173.707863, 214.262683)"><path style="stroke:none" d="M 1.90625 0 L 1.90625 -27.34375 L 7.53125 -27.34375 L 7.53125 -14.59375 L 7.59375 -14.59375 C 9.0625 -16.050781 10.625 -16.78125 12.28125 -16.78125 C 13.082031 -16.78125 13.878906 -16.675781 14.671875 -16.46875 C 15.460938 -16.257812 16.222656 -15.929688 16.953125 -15.484375 C 17.691406 -15.035156 18.285156 -14.40625 18.734375 -13.59375 C 19.191406 -12.78125 19.421875 -11.832031 19.421875 -10.75 L 19.421875 0 L 13.796875 0 L 13.796875 -9.21875 C 13.796875 -10.070312 13.523438 -10.816406 12.984375 -11.453125 C 12.441406 -12.085938 11.738281 -12.40625 10.875 -12.40625 C 10.03125 -12.40625 9.257812 -12.070312 8.5625 -11.40625 C 7.875 -10.75 7.53125 -10.019531 7.53125 -9.21875 L 7.53125 0 Z M 1.90625 0 "/></g></g><g style="fill:#000000;fill-opacity:1;"><g transform="translate(192.018964, 214.262683)"><path style="stroke:none" d="M 3.015625 -2.015625 C 1.492188 -3.679688 0.734375 -5.722656 0.734375 -8.140625 C 0.734375 -10.554688 1.492188 -12.597656 3.015625 -14.265625 C 4.546875 -15.941406 6.488281 -16.78125 8.84375 -16.78125 C 11 -16.78125 12.78125 -16.101562 14.1875 -14.75 L 14.1875 -16.3125 L 19.8125 -16.3125 L 19.8125 0 L 14.25 0 L 14.25 -1.84375 L 14.1875 -1.84375 C 12.78125 -0.289062 11 0.484375 8.84375 0.484375 C 6.488281 0.484375 4.546875 -0.347656 3.015625 -2.015625 Z M 7.796875 -10.90625 C 7.066406 -10.1875 6.703125 -9.265625 6.703125 -8.140625 C 6.703125 -7.015625 7.050781 -6.097656 7.75 -5.390625 C 8.457031 -4.679688 9.382812 -4.328125 10.53125 -4.328125 C 11.625 -4.328125 12.523438 -4.6875 13.234375 -5.40625 C 13.953125 -6.125 14.3125 -7.035156 14.3125 -8.140625 C 14.3125 -9.265625 13.941406 -10.1875 13.203125 -10.90625 C 12.472656 -11.625 11.582031 -11.984375 10.53125 -11.984375 C 9.445312 -11.984375 8.535156 -11.625 7.796875 -10.90625 Z M 7.796875 -10.90625 "/></g></g><g style="fill:#000000;fill-opacity:1;"><g transform="translate(211.029487, 214.262683)"><path style="stroke:none" d="M 1.90625 0 L 1.90625 -16.3125 L 7.53125 -16.3125 L 7.53125 -14.59375 L 7.59375 -14.59375 C 9.0625 -16.050781 10.625 -16.78125 12.28125 -16.78125 C 13.082031 -16.78125 13.878906 -16.675781 14.671875 -16.46875 C 15.460938 -16.257812 16.222656 -15.929688 16.953125 -15.484375 C 17.691406 -15.035156 18.285156 -14.40625 18.734375 -13.59375 C 19.191406 -12.78125 19.421875 -11.832031 19.421875 -10.75 L 19.421875 0 L 13.796875 0 L 13.796875 -9.21875 C 13.796875 -10.070312 13.523438 -10.816406 12.984375 -11.453125 C 12.441406 -12.085938 11.738281 -12.40625 10.875 -12.40625 C 10.03125 -12.40625 9.257812 -12.070312 8.5625 -11.40625 C 7.875 -10.75 7.53125 -10.019531 7.53125 -9.21875 L 7.53125 0 Z M 1.90625 0 "/></g></g><g style="fill:#000000;fill-opacity:1;"><g transform="translate(229.340588, 214.262683)"><path style="stroke:none" d="M 1.171875 4 L 5.78125 1.75 C 6.632812 3.144531 8.109375 3.84375 10.203125 3.84375 C 11.179688 3.84375 12.085938 3.53125 12.921875 2.90625 C 13.765625 2.28125 14.1875 1.320312 14.1875 0.03125 L 14.1875 -1.171875 C 13.1875 -0.0664062 11.40625 0.484375 8.84375 0.484375 C 6.488281 0.484375 4.546875 -0.347656 3.015625 -2.015625 C 1.492188 -3.679688 0.734375 -5.722656 0.734375 -8.140625 C 0.734375 -10.554688 1.492188 -12.597656 3.015625 -14.265625 C 4.546875 -15.941406 6.488281 -16.78125 8.84375 -16.78125 C 10.9375 -16.78125 12.6875 -16.132812 14.09375 -14.84375 L 14.1875 -14.84375 L 14.1875 -16.3125 L 19.8125 -16.3125 L 19.8125 0.4375 C 19.8125 3.09375 18.929688 5.140625 17.171875 6.578125 C 15.410156 8.023438 13.085938 8.75 10.203125 8.75 C 5.546875 8.75 2.535156 7.164062 1.171875 4 Z M 7.796875 -10.90625 C 7.066406 -10.1875 6.703125 -9.265625 6.703125 -8.140625 C 6.703125 -7.015625 7.050781 -6.097656 7.75 -5.390625 C 8.457031 -4.679688 9.382812 -4.328125 10.53125 -4.328125 C 11.625 -4.328125 12.523438 -4.6875 13.234375 -5.40625 C 13.953125 -6.125 14.3125 -7.035156 14.3125 -8.140625 C 14.3125 -9.265625 13.941406 -10.1875 13.203125 -10.90625 C 12.472656 -11.625 11.582031 -11.984375 10.53125 -11.984375 C 9.445312 -11.984375 8.535156 -11.625 7.796875 -10.90625 Z M 7.796875 -10.90625 "/></g></g><g style="fill:#000000;fill-opacity:1;"><g transform="translate(248.351096, 214.262683)"><path style="stroke:none" d="M 5.53125 -6.796875 C 6.550781 -6.796875 7.414062 -6.441406 8.125 -5.734375 C 8.832031 -5.023438 9.1875 -4.160156 9.1875 -3.140625 C 9.1875 -2.148438 8.832031 -1.296875 8.125 -0.578125 C 7.414062 0.128906 6.550781 0.484375 5.53125 0.484375 C 4.53125 0.484375 3.675781 0.128906 2.96875 -0.578125 C 2.257812 -1.296875 1.90625 -2.148438 1.90625 -3.140625 C 1.90625 -4.160156 2.257812 -5.023438 2.96875 -5.734375 C 3.675781 -6.441406 4.53125 -6.796875 5.53125 -6.796875 Z M 5.53125 -6.796875 "/></g></g><g style="fill:#000000;fill-opacity:1;"><g transform="translate(256.743258, 214.262683)"><path style="stroke:none" d="M 10.59375 -12.171875 C 9.53125 -12.171875 8.613281 -11.78125 7.84375 -11 C 7.082031 -10.21875 6.703125 -9.273438 6.703125 -8.171875 C 6.703125 -7.046875 7.082031 -6.09375 7.84375 -5.3125 C 8.613281 -4.53125 9.53125 -4.140625 10.59375 -4.140625 C 11.09375 -4.140625 11.570312 -4.203125 12.03125 -4.328125 C 12.488281 -4.453125 12.820312 -4.578125 13.03125 -4.703125 L 13.328125 -4.890625 L 15.234375 -0.984375 C 15.085938 -0.878906 14.878906 -0.742188 14.609375 -0.578125 C 14.347656 -0.421875 13.742188 -0.207031 12.796875 0.0625 C 11.859375 0.34375 10.847656 0.484375 9.765625 0.484375 C 7.367188 0.484375 5.265625 -0.359375 3.453125 -2.046875 C 1.640625 -3.734375 0.734375 -5.753906 0.734375 -8.109375 C 0.734375 -10.484375 1.640625 -12.519531 3.453125 -14.21875 C 5.265625 -15.925781 7.367188 -16.78125 9.765625 -16.78125 C 10.847656 -16.78125 11.84375 -16.65625 12.75 -16.40625 C 13.664062 -16.15625 14.3125 -15.898438 14.6875 -15.640625 L 15.234375 -15.265625 L 13.328125 -11.421875 C 12.628906 -11.921875 11.71875 -12.171875 10.59375 -12.171875 Z M 10.59375 -12.171875 "/></g></g><g style="fill:#000000;fill-opacity:1;"><g transform="translate(269.649809, 214.262683)"><path style="stroke:none" d="M 3.453125 -1.9375 C 1.640625 -3.550781 0.734375 -5.617188 0.734375 -8.140625 C 0.734375 -10.660156 1.675781 -12.726562 3.5625 -14.34375 C 5.445312 -15.96875 7.78125 -16.78125 10.5625 -16.78125 C 13.289062 -16.78125 15.59375 -15.960938 17.46875 -14.328125 C 19.34375 -12.703125 20.28125 -10.640625 20.28125 -8.140625 C 20.28125 -5.640625 19.363281 -3.578125 17.53125 -1.953125 C 15.695312 -0.328125 13.375 0.484375 10.5625 0.484375 C 7.632812 0.484375 5.265625 -0.320312 3.453125 -1.9375 Z M 7.796875 -10.90625 C 7.066406 -10.1875 6.703125 -9.265625 6.703125 -8.140625 C 6.703125 -7.015625 7.050781 -6.097656 7.75 -5.390625 C 8.457031 -4.679688 9.382812 -4.328125 10.53125 -4.328125 C 11.625 -4.328125 12.523438 -4.6875 13.234375 -5.40625 C 13.953125 -6.125 14.3125 -7.035156 14.3125 -8.140625 C 14.3125 -9.265625 13.941406 -10.1875 13.203125 -10.90625 C 12.472656 -11.625 11.582031 -11.984375 10.53125 -11.984375 C 9.445312 -11.984375 8.535156 -11.625 7.796875 -10.90625 Z M 7.796875 -10.90625 "/></g></g><g style="fill:#000000;fill-opacity:1;"><g transform="translate(287.960911, 214.262683)"><path style="stroke:none" d="M 1.90625 0 L 1.90625 -16.3125 L 7.53125 -16.3125 L 7.53125 -14.59375 L 7.59375 -14.59375 C 9.0625 -16.050781 10.625 -16.78125 12.28125 -16.78125 C 13.457031 -16.78125 14.566406 -16.535156 15.609375 -16.046875 C 16.648438 -15.566406 17.4375 -14.816406 17.96875 -13.796875 C 19.625 -15.785156 21.425781 -16.78125 23.375 -16.78125 C 25.113281 -16.78125 26.609375 -16.289062 27.859375 -15.3125 C 29.109375 -14.34375 29.734375 -12.820312 29.734375 -10.75 L 29.734375 0 L 24.109375 0 L 24.109375 -9.21875 C 24.109375 -10.09375 23.867188 -10.820312 23.390625 -11.40625 C 22.910156 -11.988281 22.191406 -12.28125 21.234375 -12.28125 C 20.410156 -12.28125 19.78125 -12.03125 19.34375 -11.53125 C 18.914062 -11.03125 18.679688 -10.429688 18.640625 -9.734375 L 18.640625 0 L 13 0 L 13 -9.21875 C 13 -10.09375 12.757812 -10.820312 12.28125 -11.40625 C 11.8125 -11.988281 11.097656 -12.28125 10.140625 -12.28125 C 9.273438 -12.28125 8.625 -12.007812 8.1875 -11.46875 C 7.75 -10.925781 7.53125 -10.285156 7.53125 -9.546875 L 7.53125 0 Z M 1.90625 0 "/></g></g><path style="fill:none;stroke-width:10;stroke-linecap:butt;stroke-linejoin:miter;stroke:#292929;stroke-opacity:1;stroke-miterlimit:4;" d="M -0.00221502 5.000127 L 84.435593 5.000127 " transform="matrix(0.443004,0,0,0.443004,69.118169,231.120863)"/><path style="fill:none;stroke-width:10;stroke-linecap:butt;stroke-linejoin:miter;stroke:#292929;stroke-opacity:1;stroke-miterlimit:4;" d="M -0.00282561 4.997282 L 82.46585 4.997282 " transform="matrix(0,0.442782,-0.442782,0,73.568174,197.524689)"/><path style="fill:none;stroke-width:10;stroke-linecap:butt;stroke-linejoin:miter;stroke:#292929;stroke-opacity:1;stroke-miterlimit:4;" d="M 0.000886381 4.999968 L 84.429877 4.999968 " transform="matrix(-0.443004,0,0,-0.443004,331.676174,182.93766)"/><path style="fill:none;stroke-width:10;stroke-linecap:butt;stroke-linejoin:miter;stroke:#292929;stroke-opacity:1;stroke-miterlimit:4;" d="M -0.00305539 5.003034 L 82.46562 5.003034 " transform="matrix(0,-0.442782,0.442782,0,327.226154,216.533803)"/></g></svg>