<svg width="1320" height="126" viewBox="0 0 1320 126" fill="none" xmlns="http://www.w3.org/2000/svg">
<g filter="url(#filter0_di_502_39)">
<path d="M1249.5 14.8369H54.5C31.5802 14.8369 13 33.4171 13 56.3369C13 79.2567 31.5802 97.8369 54.5 97.8369H1249.5C1272.42 97.8369 1291 79.2567 1291 56.3369C1291 33.4171 1272.42 14.8369 1249.5 14.8369Z" fill="url(#paint0_linear_502_39)"/>
<path d="M1249.5 15.8369H54.5C32.1325 15.8369 14 33.9694 14 56.3369C14 78.7044 32.1325 96.8369 54.5 96.8369H1249.5C1271.87 96.8369 1290 78.7044 1290 56.3369C1290 33.9694 1271.87 15.8369 1249.5 15.8369Z" stroke="white" stroke-width="2"/>
</g>
<defs>
<filter id="filter0_di_502_39" x="0" y="0.836914" width="1320" height="125" filterUnits="userSpaceOnUse" color-interpolation-filters="sRGB">
<feFlood flood-opacity="0" result="BackgroundImageFix"/>
<feColorMatrix in="SourceAlpha" type="matrix" values="0 0 0 0 0 0 0 0 0 0 0 0 0 0 0 0 0 0 127 0" result="hardAlpha"/>
<feOffset dx="8" dy="7"/>
<feGaussianBlur stdDeviation="10.5"/>
<feComposite in2="hardAlpha" operator="out"/>
<feColorMatrix type="matrix" values="0 0 0 0 0 0 0 0 0 0 0 0 0 0 0 0 0 0 0.15 0"/>
<feBlend mode="normal" in2="BackgroundImageFix" result="effect1_dropShadow_502_39"/>
<feBlend mode="normal" in="SourceGraphic" in2="effect1_dropShadow_502_39" result="shape"/>
<feColorMatrix in="SourceAlpha" type="matrix" values="0 0 0 0 0 0 0 0 0 0 0 0 0 0 0 0 0 0 127 0" result="hardAlpha"/>
<feOffset dx="-6" dy="-7"/>
<feGaussianBlur stdDeviation="5.5"/>
<feComposite in2="hardAlpha" operator="arithmetic" k2="-1" k3="1"/>
<feColorMatrix type="matrix" values="0 0 0 0 1 0 0 0 0 1 0 0 0 0 1 0 0 0 0.84 0"/>
<feBlend mode="normal" in2="shape" result="effect2_innerShadow_502_39"/>
</filter>
<linearGradient id="paint0_linear_502_39" x1="13" y1="55.837" x2="1275.86" y2="55.837" gradientUnits="userSpaceOnUse">
<stop offset="0.0243053" stop-color="#E8EAF1"/>
<stop offset="1" stop-color="#EBECF0" stop-opacity="0"/>
</linearGradient>
</defs>
</svg>
